<?xml version="1.0" standalone="no"?>
<!DOCTYPE svg PUBLIC "-//W3C//DTD SVG 20010904//EN"
 "http://www.w3.org/TR/2001/REC-SVG-20010904/DTD/svg10.dtd">
<svg version="1.0" xmlns="http://www.w3.org/2000/svg"
 width="640.000000pt" height="640.000000pt" viewBox="0 0 640.000000 640.000000"
 preserveAspectRatio="xMidYMid meet">

<g transform="translate(0.000000,640.000000) scale(0.100000,-0.100000)"
fill="#000000" stroke="none">
<path d="M0 3200 l0 -3200 3200 0 3200 0 0 3200 0 3200 -3200 0 -3200 0 0
-3200z m3201 3174 c102 -19 223 -65 264 -99 l30 -25 -50 21 c-27 11 -59 21
-70 22 -11 0 -27 6 -35 12 -8 6 -25 12 -38 13 -13 0 -46 8 -74 18 -63 21 -178
26 -185 8 -6 -16 -43 -25 -43 -11 0 8 -3 8 -9 -1 -4 -7 -34 -16 -67 -19 -32
-3 -69 -11 -80 -19 -12 -7 -31 -10 -43 -7 -11 3 -21 1 -21 -5 0 -10 -38 -28
-52 -24 -4 1 -23 -5 -42 -13 -52 -22 -54 -18 -10 13 61 42 84 54 154 80 146
54 234 62 371 36z m-391 -115 c0 -5 -7 -9 -15 -9 -15 0 -20 12 -9 23 8 8 24
-1 24 -14z m318 3 c-19 -4 -26 -42 -8 -42 6 0 10 6 10 13 0 8 4 7 10 -3 9 -13
11 -13 20 0 6 10 10 11 10 3 0 -7 7 -13 15 -13 8 0 15 -4 15 -10 0 -12 29 -2
53 18 15 14 17 13 17 -2 0 -10 5 -14 11 -10 8 4 9 0 4 -15 -8 -25 6 -27 40 -5
24 16 25 15 26 -7 0 -13 3 -18 6 -11 9 23 33 13 33 -14 0 -16 5 -24 13 -21 6
2 11 10 10 16 -5 20 15 12 22 -9 3 -11 11 -20 17 -20 6 0 8 -10 4 -25 -6 -22
-3 -25 21 -26 16 0 22 -3 16 -6 -7 -2 -13 -9 -13 -14 0 -6 6 -9 13 -8 24 3 37
-1 37 -12 0 -21 75 -85 118 -102 24 -10 41 -13 37 -7 -3 5 -1 10 4 10 6 0 10
6 9 13 -2 6 4 12 12 12 31 0 82 -105 122 -255 17 -63 30 -236 28 -384 0 -4 13
6 29 23 39 42 75 42 90 0 21 -60 23 -122 6 -169 -9 -25 -23 -79 -30 -120 -15
-73 -47 -166 -71 -204 -7 -10 -23 -24 -36 -30 -20 -10 -25 -25 -41 -136 -11
-70 -30 -153 -44 -189 -22 -56 -25 -72 -18 -135 3 -39 13 -99 21 -133 20 -89
11 -141 -71 -398 -18 -55 -38 -129 -45 -165 -7 -36 -22 -91 -34 -123 -20 -54
-23 -57 -48 -51 -24 5 -28 3 -28 -18 1 -27 22 -58 41 -59 11 0 11 -2 -1 -7 -8
-4 -54 -33 -102 -65 -117 -77 -149 -90 -233 -90 -97 0 -157 27 -234 108 -34
35 -61 67 -61 72 0 4 12 9 28 10 50 4 102 15 108 24 3 5 14 9 25 9 11 0 24 10
30 23 34 76 50 88 93 76 82 -24 186 1 186 45 0 26 22 86 32 86 4 0 5 15 2 33
-3 17 -7 50 -9 72 -2 22 -4 45 -6 50 -4 13 25 79 50 114 11 16 18 31 15 34 -6
6 33 63 75 110 14 15 22 27 18 27 -4 0 2 15 13 33 11 17 20 41 20 52 0 15 -24
-5 -90 -73 -49 -52 -94 -91 -99 -87 -6 3 -53 -3 -105 -14 -52 -12 -102 -18
-110 -15 -25 10 -19 30 13 44 16 6 32 22 35 34 4 18 21 29 68 46 81 29 131 52
139 63 4 5 16 4 29 -3 12 -6 25 -8 28 -4 4 4 2 9 -5 11 -8 3 -5 11 8 24 26 26
24 35 -10 69 -16 16 -31 40 -35 53 -8 33 -27 39 -62 20 -16 -8 -62 -17 -103
-18 -40 -2 -86 -9 -101 -15 -21 -9 -35 -8 -61 3 l-34 15 28 11 c15 6 38 15 52
21 14 5 25 16 25 24 0 29 21 61 54 83 30 19 66 71 66 95 0 21 -42 4 -66 -28
-26 -34 -29 -35 -78 -30 -64 7 -79 23 -82 88 -2 29 -8 105 -14 168 -17 190
-17 200 4 215 17 13 17 16 2 61 -9 26 -16 58 -16 70 0 35 -16 37 -30 4 -13
-31 -26 -38 -32 -20 -4 14 -33 14 -88 0 -34 -9 -55 -8 -88 1 -24 7 -64 13 -88
13 -24 1 -44 5 -44 9 0 5 -17 8 -37 7 -58 -3 -73 -1 -73 10 0 6 8 11 18 11 16
1 16 2 0 6 -24 6 -23 19 3 26 16 4 20 10 14 24 -17 42 -17 51 3 57 16 6 20 15
20 51 -1 28 5 49 15 60 21 20 21 26 2 19 -10 -4 -16 0 -17 12 0 11 -2 24 -3
29 -2 6 -4 15 -5 20 -1 6 -2 13 -1 18 0 4 -6 7 -15 7 -8 0 -12 4 -9 10 3 5 -1
23 -10 40 -9 17 -13 35 -10 39 3 5 -5 7 -16 4 -12 -4 -24 -14 -26 -25 -6 -20
-23 -25 -23 -5 -1 22 -30 -26 -30 -50 0 -13 -6 -23 -14 -23 -16 0 -26 -43 -26
-117 0 -56 21 -123 39 -123 6 0 11 -7 11 -15 0 -8 6 -15 14 -15 18 0 26 -22
19 -51 -5 -18 -3 -21 10 -16 10 4 17 2 17 -2 0 -5 -4 -11 -9 -13 -6 -1 -12
-25 -15 -53 -3 -27 -3 -42 0 -32 7 23 20 22 27 -2 6 -23 -10 -51 -20 -36 -15
20 -64 46 -75 39 -7 -4 -9 -36 -6 -93 4 -68 11 -98 33 -140 19 -39 26 -64 23
-90 -3 -20 1 -58 9 -86 7 -27 16 -84 19 -125 3 -41 9 -79 12 -85 3 -7 1 -7 -6
0 -9 9 -77 186 -97 255 -5 14 -16 31 -26 38 -11 7 -19 18 -19 23 0 5 -20 51
-43 102 -24 51 -49 110 -55 132 -6 22 -22 73 -37 112 -14 40 -28 93 -32 118
l-6 45 35 0 c19 0 39 -5 46 -12 21 -21 22 -3 5 73 -25 117 -22 270 10 427 31
150 48 198 92 260 16 24 36 53 42 65 7 12 13 17 13 10 0 -6 -10 -28 -22 -49
l-21 -36 21 6 c22 7 31 -7 12 -19 -6 -4 -8 -11 -5 -16 4 -5 17 3 31 19 23 24
25 25 19 5 -3 -12 -1 -24 4 -28 6 -3 9 -27 6 -53 -3 -29 0 -49 8 -55 9 -7 9
-10 0 -14 -18 -7 -16 -30 3 -37 9 -4 19 -4 22 -1 3 3 0 5 -6 5 -20 0 -14 14
23 53 19 20 35 42 35 49 0 9 3 8 13 -1 10 -11 10 -14 0 -18 -18 -6 -16 -23 2
-23 23 0 18 -17 -7 -23 -12 -4 -19 -9 -16 -13 4 -3 15 -3 26 0 23 8 39 39 23
44 -6 2 8 22 30 43 24 23 48 38 56 35 8 -3 11 -10 8 -16 -3 -6 1 -7 9 -4 9 3
16 1 16 -5 0 -6 -15 -12 -32 -12 -32 -2 -33 -2 -4 -6 16 -3 33 0 39 6 6 6 22
11 37 12 22 0 23 1 5 8 -18 7 -17 8 7 14 29 8 58 0 58 -14 0 -5 8 -9 18 -9 14
0 13 4 -7 19 -18 14 -21 20 -10 25 8 3 1 4 -14 1 -17 -4 -26 -2 -23 4 3 5 0
12 -6 15 -9 4 -8 5 2 5 30 -2 41 1 35 11 -4 6 -11 7 -17 4 -5 -4 -20 4 -32 17
-18 19 -21 28 -12 42 8 13 8 20 -3 26 -16 10 -6 31 14 31 8 0 11 -7 8 -20 -4
-16 -2 -19 11 -14 9 3 16 1 16 -5 0 -6 5 -11 10 -11 6 0 10 9 10 20 0 13 -5
18 -15 14 -10 -4 -15 0 -15 15 0 25 8 26 34 6 29 -22 33 -19 28 17 -5 30 -3
32 12 19 9 -8 20 -11 24 -7 7 8 8 13 11 42 0 8 5 13 9 10 5 -3 7 -20 5 -38 -3
-29 -2 -30 7 -10 5 12 14 22 20 22 5 0 10 9 10 20 0 11 5 20 10 20 6 0 10 -13
10 -30 0 -16 5 -30 11 -30 6 0 8 8 4 20 -9 28 11 61 33 52 16 -6 16 -7 0 -10z
m52 -2 c0 -5 -4 -10 -10 -10 -5 0 -10 5 -10 10 0 6 5 10 10 10 6 0 10 -4 10
-10z m-190 -27 c0 -19 -3 -24 -10 -17 -6 6 -8 18 -4 27 9 24 14 21 14 -10z
m-184 -155 c4 -7 3 -8 -4 -4 -7 4 -12 2 -12 -4 0 -6 -5 -8 -11 -4 -8 4 -7 9 2
15 18 11 17 11 25 -3z m-206 -18 c0 -5 -4 -10 -10 -10 -5 0 -10 5 -10 10 0 6
5 10 10 10 6 0 10 -4 10 -10z m4 -47 c-25 -18 -33 -16 -27 6 5 21 35 33 42 17
2 -5 -4 -15 -15 -23z m236 13 c0 -3 -4 -8 -10 -11 -5 -3 -10 -1 -10 4 0 6 5
11 10 11 6 0 10 -2 10 -4z m-55 -16 c3 -5 2 -10 -4 -10 -5 0 -13 5 -16 10 -3
6 -2 10 4 10 5 0 13 -4 16 -10z m82 -16 c-3 -3 -12 -4 -19 -1 -8 3 -5 6 6 6
11 1 17 -2 13 -5z m-237 -59 c0 -18 -36 -39 -45 -25 -3 5 -1 10 4 10 6 0 11 7
11 15 0 8 7 15 15 15 8 0 15 -7 15 -15z m402 -1071 c-5 -29 -22 -32 -22 -4 0
11 -5 20 -11 20 -7 0 -9 -11 -6 -26 2 -15 0 -49 -7 -78 -6 -28 -11 -70 -11
-93 0 -24 -3 -43 -7 -43 -4 0 -10 -9 -13 -20 -8 -25 -60 -53 -83 -46 -9 3 -26
19 -37 36 -11 17 -28 33 -37 36 -26 8 -57 51 -69 98 -6 22 -16 45 -23 49 -6 5
-1 7 13 4 13 -3 35 -1 50 5 14 6 29 12 34 13 4 2 9 4 12 5 3 1 9 3 14 4 5 0
13 4 17 9 4 4 14 7 23 7 9 0 38 11 64 24 26 14 60 24 76 24 24 -1 27 -4 23
-24z m48 -205 c16 -37 9 -44 -27 -32 -31 11 -42 45 -22 69 15 18 32 5 49 -37z
m379 -300 c17 -6 31 -17 31 -25 0 -8 7 -14 15 -14 13 0 13 -3 3 -20 -7 -11
-21 -20 -31 -20 -10 0 -28 -5 -39 -11 -15 -8 -19 -8 -14 0 4 6 0 11 -8 11 -10
0 -13 6 -10 15 8 20 3 19 -36 -10 -41 -30 -74 -35 -39 -5 29 23 10 26 -31 5
-17 -9 -30 -13 -30 -10 0 4 -7 -1 -17 -10 -12 -12 -25 -15 -52 -10 -50 9 -60
22 -27 35 15 5 33 10 41 10 8 0 17 5 20 10 3 6 19 10 36 10 16 0 29 5 29 10 0
6 17 10 38 10 28 0 74 15 88 29 1 1 15 -4 33 -10z m-690 -146 c13 -67 15 -193
2 -193 -12 0 -21 37 -21 90 0 50 -9 90 -19 90 -8 0 -41 -75 -41 -93 0 -17 -25
-86 -44 -121 -8 -16 -13 -33 -10 -38 5 -7 -13 -12 -43 -11 -7 1 -14 -3 -14 -8
-3 -20 -5 -25 -14 -39 -8 -12 -11 -9 -15 15 l-5 30 -27 -45 c-15 -25 -27 -39
-28 -32 0 7 11 30 25 52 24 38 21 56 -5 25 -7 -8 -19 -15 -26 -15 -8 0 -71
-29 -142 -64 -70 -35 -151 -71 -179 -81 -31 -10 -53 -23 -53 -31 0 -8 -4 -14
-10 -14 -5 0 -7 6 -4 14 9 24 -71 2 -178 -48 -54 -25 -102 -46 -107 -46 -5 0
-14 -7 -21 -15 -6 -8 -15 -14 -18 -13 -18 2 -32 -4 -48 -19 -10 -10 -45 -36
-78 -58 -106 -69 -143 -99 -159 -127 -9 -16 -22 -28 -29 -28 -8 1 -5 7 7 17
20 15 20 15 -4 10 -21 -5 -20 -1 15 35 65 67 249 184 359 228 39 15 95 39 125
53 85 39 127 56 230 92 101 34 264 102 342 141 34 17 58 40 86 81 52 78 114
203 108 219 -2 6 -2 15 1 18 13 13 31 -17 42 -71z m1079 49 c25 -25 52 -65 52
-76 0 -6 -7 1 -17 14 -9 14 -27 37 -41 53 -28 30 -23 38 6 9z m112 -162 c5 0
7 -7 3 -16 -4 -11 -12 -4 -29 26 -13 23 -24 47 -24 54 1 6 10 -6 21 -26 11
-21 24 -38 29 -38z m-1340 -185 c-7 -9 -15 -13 -19 -10 -3 3 1 10 9 15 21 14
24 12 10 -5z m1769 4 c17 -6 31 -15 31 -20 0 -4 6 -6 14 -3 8 3 23 1 33 -5 15
-9 13 -10 -11 -5 -22 5 -27 4 -21 -5 4 -7 -12 0 -36 15 -64 39 -65 42 -10 23z
m141 -49 c18 -12 2 -12 -25 0 -13 6 -15 9 -5 9 8 0 22 -4 30 -9z m425 -190 c3
-6 -1 -7 -9 -4 -18 7 -21 14 -7 14 6 0 13 -4 16 -10z m-1375 -216 c0 -8 -4
-12 -10 -9 -5 3 -10 10 -10 16 0 5 5 9 10 9 6 0 10 -7 10 -16z m-2210 -158 c0
-2 -8 -10 -17 -17 -16 -13 -17 -12 -4 4 13 16 21 21 21 13z m-137 -329 c-5
-48 -8 -54 -18 -40 -10 14 -10 25 3 60 9 23 17 41 19 40 1 -2 -1 -28 -4 -60z
m2327 -7 c0 -5 -2 -10 -4 -10 -3 0 -8 5 -11 10 -3 6 -1 10 4 10 6 0 11 -4 11
-10z m0 -145 c0 -8 -4 -15 -10 -15 -5 0 -10 7 -10 15 0 8 5 15 10 15 6 0 10
-7 10 -15z m-2409 -58 c-13 -13 -14 5 -3 43 l7 25 3 -29 c2 -16 -1 -33 -7 -39z
m2403 18 c-4 -8 -8 -15 -10 -15 -2 0 -4 7 -4 15 0 8 4 15 10 15 5 0 7 -7 4
-15z m7 -42 c4 -40 3 -73 -2 -73 -4 0 -9 18 -11 40 -2 22 0 40 4 40 5 0 8 -3
9 -7z m16 -109 c-3 -3 -12 -4 -19 -1 -8 3 -5 6 6 6 11 1 17 -2 13 -5z m0 -20
c-3 -3 -12 -4 -19 -1 -8 3 -5 6 6 6 11 1 17 -2 13 -5z m3 -44 c0 -16 -3 -30
-8 -30 -4 0 -8 14 -8 30 -1 17 2 30 7 30 5 0 9 -13 9 -30z m-613 -16 c-3 -3
-12 -4 -19 -1 -8 3 -5 6 6 6 11 1 17 -2 13 -5z m620 -30 c-3 -3 -12 -4 -19 -1
-8 3 -5 6 6 6 11 1 17 -2 13 -5z m-627 -14 c0 -5 -4 -10 -10 -10 -5 0 -10 5
-10 10 0 6 5 10 10 10 6 0 10 -4 10 -10z m640 -80 c0 -11 0 -21 0 -22 1 -2 5
-20 9 -40 5 -21 5 -38 0 -38 -7 0 -12 22 -23 98 -2 12 1 22 5 22 5 0 9 -9 9
-20z m-666 -79 c-4 -28 -10 -51 -15 -51 -11 0 -11 -1 2 60 14 65 22 59 13 -9z
m681 -41 c3 -5 1 -10 -4 -10 -6 0 -11 5 -11 10 0 6 2 10 4 10 3 0 8 -4 11 -10z
m-695 -54 c0 -22 -11 -46 -21 -46 -5 0 -4 11 1 24 5 13 6 27 3 30 -4 3 -1 6 5
6 7 0 12 -6 12 -14z m-3 -62 c-3 -3 -12 -4 -19 -1 -8 3 -5 6 6 6 11 1 17 -2
13 -5z m-10 -20 c-3 -3 -12 -4 -19 -1 -8 3 -5 6 6 6 11 1 17 -2 13 -5z m0 -20
c-3 -3 -12 -4 -19 -1 -8 3 -5 6 6 6 11 1 17 -2 13 -5z m730 0 c-3 -3 -12 -4
-19 -1 -8 3 -5 6 6 6 11 1 17 -2 13 -5z m-740 -20 c-3 -3 -12 -4 -19 -1 -8 3
-5 6 6 6 11 1 17 -2 13 -5z m3 -24 c0 -5 -5 -10 -11 -10 -5 0 -7 -6 -3 -12 4
-7 3 -9 -1 -5 -15 13 -14 37 1 37 8 0 14 -4 14 -10z m-20 -90 c0 -5 -2 -10 -4
-10 -3 0 -8 5 -11 10 -3 6 -1 10 4 10 6 0 11 -4 11 -10z m-28 -140 c-2 -16 -9
-30 -14 -30 -6 0 -7 7 -4 16 3 9 6 22 6 30 0 8 4 14 8 14 5 0 7 -13 4 -30z
m-5 -46 c-3 -3 -12 -4 -19 -1 -8 3 -5 6 6 6 11 1 17 -2 13 -5z m0 -20 c-3 -3
-12 -4 -19 -1 -8 3 -5 6 6 6 11 1 17 -2 13 -5z m-10 -20 c-3 -3 -12 -4 -19 -1
-8 3 -5 6 6 6 11 1 17 -2 13 -5z m-4 -20 c7 -8 -3 -34 -13 -34 -5 0 -8 9 -7
20 1 20 8 25 20 14z m864 0 c-3 -3 -12 -4 -19 -1 -8 3 -5 6 6 6 11 1 17 -2 13
-5z m-870 -50 c-3 -3 -12 -4 -19 -1 -8 3 -5 6 6 6 11 1 17 -2 13 -5z m880 0
c-3 -3 -12 -4 -19 -1 -8 3 -5 6 6 6 11 1 17 -2 13 -5z m0 -20 c-3 -3 -12 -4
-19 -1 -8 3 -5 6 6 6 11 1 17 -2 13 -5z m-897 -38 c-5 -13 -6 -27 -3 -30 4 -3
2 -6 -4 -6 -6 0 -10 14 -9 30 0 17 6 30 13 30 9 0 10 -7 3 -24z m897 18 c-3
-3 -12 -4 -19 -1 -8 3 -5 6 6 6 11 1 17 -2 13 -5z m10 -20 c-3 -3 -12 -4 -19
-1 -8 3 -5 6 6 6 11 1 17 -2 13 -5z m0 -26 c0 -7 4 -21 8 -30 4 -11 3 -18 -5
-18 -6 0 -8 5 -5 10 3 6 2 10 -2 10 -5 0 -9 9 -10 20 -1 11 2 20 6 20 4 0 8
-6 8 -12z m-922 -68 c-3 -5 -8 -31 -11 -57 -8 -84 -15 -113 -24 -113 -12 0
-12 10 -1 63 6 23 13 59 16 80 3 20 10 37 16 37 6 0 7 -4 4 -10z m936 -17 c6
-32 5 -53 -1 -53 -4 0 -10 14 -12 30 -3 17 -1 30 4 30 4 0 9 -3 9 -7z m22
-119 c-7 -3 -9 -12 -6 -21 4 -11 2 -14 -5 -9 -18 11 -14 36 6 35 9 0 12 -3 5
-5z m-986 -50 c-3 -3 -12 -4 -19 -1 -8 3 -5 6 6 6 11 1 17 -2 13 -5z m0 -20
c-3 -3 -12 -4 -19 -1 -8 3 -5 6 6 6 11 1 17 -2 13 -5z m-10 -34 c-1 -11 -7
-20 -14 -20 -6 0 -11 9 -10 20 1 11 7 20 14 20 6 0 11 -9 10 -20z m1003 10 c0
-5 -5 -10 -11 -10 -5 0 -7 5 -4 10 3 6 8 10 11 10 2 0 4 -4 4 -10z m17 -26
c-3 -3 -12 -4 -19 -1 -8 3 -5 6 6 6 11 1 17 -2 13 -5z m-1020 -20 c-3 -3 -12
-4 -19 -1 -8 3 -5 6 6 6 11 1 17 -2 13 -5z m1020 0 c-3 -3 -12 -4 -19 -1 -8 3
-5 6 6 6 11 1 17 -2 13 -5z m-1030 -20 c-3 -3 -12 -4 -19 -1 -8 3 -5 6 6 6 11
1 17 -2 13 -5z m1033 2 c0 -3 -4 -8 -10 -11 -5 -3 -10 -1 -10 4 0 6 5 11 10
11 6 0 10 -2 10 -4z m-1033 -22 c-3 -3 -12 -4 -19 -1 -8 3 -5 6 6 6 11 1 17
-2 13 -5z m-7 -24 c0 -5 -5 -10 -11 -10 -5 0 -7 5 -4 10 3 6 8 10 11 10 2 0 4
-4 4 -10z m1047 -6 c-3 -3 -12 -4 -19 -1 -8 3 -5 6 6 6 11 1 17 -2 13 -5z
m-1050 -20 c-3 -3 -12 -4 -19 -1 -8 3 -5 6 6 6 11 1 17 -2 13 -5z m1050 -14
c1 -11 -2 -20 -8 -20 -5 0 -9 9 -9 20 0 11 4 20 8 20 4 0 8 -9 9 -20z m-1104
-10 c14 -11 29 -20 34 -20 4 0 13 -10 18 -22 9 -19 40 -46 118 -100 21 -15 15
-43 -11 -53 -9 -3 -37 -8 -62 -11 -37 -4 -56 1 -105 27 -74 38 -85 47 -96 77
-5 13 -13 20 -19 17 -11 -7 -13 27 -4 61 12 43 85 57 127 24z m47 0 c0 -5 -2
-10 -4 -10 -3 0 -8 5 -11 10 -3 6 -1 10 4 10 6 0 11 -4 11 -10z m-248 -60 c-2
-14 -14 -35 -27 -47 -20 -17 -23 -28 -19 -52 4 -17 4 -31 2 -31 -3 0 -22 14
-43 30 -21 17 -41 28 -44 25 -13 -14 140 -125 171 -125 8 0 26 -13 40 -29 l26
-29 114 4 c64 2 127 -1 145 -7 41 -13 93 -82 93 -124 0 -58 -14 -65 -125 -65
-137 0 -175 4 -183 17 -8 13 -95 4 -161 -16 -30 -9 -37 -8 -52 8 -19 20 -28
88 -15 109 4 7 2 12 -4 12 -8 0 -8 6 0 20 10 18 8 19 -18 14 -21 -4 -34 1 -55
22 -18 17 -24 30 -17 34 8 5 8 14 -1 33 -6 14 -9 33 -5 42 5 14 8 14 35 0 49
-25 67 -19 32 11 -53 44 -32 121 42 155 54 24 73 21 69 -11z m1608 -38 c81
-15 106 -37 163 -146 28 -55 58 -113 65 -130 7 -16 25 -38 39 -49 41 -33 92
-121 108 -189 8 -35 18 -106 21 -158 6 -81 4 -97 -10 -109 -9 -7 -16 -18 -16
-23 0 -12 -41 -69 -60 -84 -8 -7 -30 -12 -50 -13 -52 -3 -74 -6 -88 -15 -6 -4
-17 -4 -22 -1 -6 4 -26 1 -46 -5 -27 -9 -38 -9 -49 0 -9 7 -30 16 -48 19 -23
5 -33 13 -35 29 -3 18 3 23 27 28 17 4 31 12 31 20 0 19 41 29 51 13 6 -11 12
-9 29 8 27 30 26 33 -17 29 -21 -2 -45 1 -53 5 -8 4 -37 15 -64 24 l-49 18 24
18 c13 10 49 23 79 29 96 19 100 20 100 34 0 20 -47 37 -137 47 -53 6 -98 6
-125 -1 -55 -12 -105 -13 -113 0 -8 13 128 101 165 105 43 6 106 45 89 56 -7
4 -17 5 -21 2 -5 -2 -15 0 -23 7 -22 18 -80 9 -79 -12 1 -13 -6 -18 -26 -18
-16 0 -30 -4 -32 -10 -2 -8 -74 -27 -128 -34 -9 -1 -21 -5 -27 -9 -6 -4 -26
-6 -43 -5 -44 3 -67 46 -51 98 19 64 50 79 261 127 29 7 110 62 110 75 0 5 15
15 33 23 19 8 39 21 47 29 10 14 10 16 -6 16 -11 0 -32 7 -47 15 -25 13 -29
13 -34 -1 -8 -21 -60 -72 -105 -101 -43 -29 -78 -26 -115 9 -23 22 -22 31 11
73 l16 20 -5 -20 c-3 -12 0 -9 7 6 7 14 19 24 26 22 6 -3 12 0 12 5 0 6 -5 12
-11 14 -12 4 25 72 60 112 17 19 52 19 161 -2z m-1929 -342 c5 0 4 -11 -1 -25
-5 -14 -7 -32 -3 -40 3 -9 -2 -21 -12 -29 -15 -11 -21 -10 -35 3 -9 9 -15 20
-13 24 3 4 -1 15 -8 24 -11 13 -10 18 10 35 14 10 31 16 38 13 8 -3 19 -5 24
-5z m467 -85 c19 -24 25 -25 163 -30 165 -5 176 -10 161 -80 -6 -33 -12 -39
-37 -42 -17 -2 -57 -7 -90 -12 -34 -5 -82 -5 -110 0 -120 20 -132 21 -180 6
-60 -17 -100 -14 -127 9 -15 15 -18 26 -12 59 10 59 40 82 119 90 36 4 68 11
71 16 9 15 22 10 42 -16z m-588 -205 c0 -5 -2 -10 -4 -10 -3 0 -8 5 -11 10 -3
6 -1 10 4 10 6 0 11 -4 11 -10z m742 -22 c128 3 137 2 142 -16 10 -31 -10 -69
-40 -76 -15 -4 -95 -6 -178 -5 -83 1 -167 -1 -187 -5 -46 -10 -79 6 -79 38 0
31 17 44 70 52 25 4 52 11 60 15 8 5 29 6 45 2 17 -4 91 -6 167 -5z m1164 -73
c14 -13 13 -15 -5 -15 -12 0 -21 -4 -21 -9 0 -14 -101 -30 -128 -20 -32 12
-25 18 50 40 79 22 86 22 104 4z m-1136 -138 c0 -24 -132 -51 -213 -43 -81 7
-102 20 -73 42 27 20 286 21 286 1z m1200 -31 c0 -17 -22 -23 -69 -17 l-34 4
24 13 c33 18 79 18 79 0z"/>
<path d="M3010 6127 c0 -10 -4 -16 -9 -12 -5 3 -12 1 -15 -4 -8 -12 18 -21 34
-11 9 6 10 12 1 26 -10 18 -10 18 -11 1z"/>
<path d="M2890 6090 c0 -5 5 -10 10 -10 6 0 10 5 10 10 0 6 -4 10 -10 10 -5 0
-10 -4 -10 -10z"/>
<path d="M3060 5969 c0 -5 5 -7 10 -4 6 3 10 8 10 11 0 2 -4 4 -10 4 -5 0 -10
-5 -10 -11z"/>
<path d="M2730 5930 c20 -13 33 -13 25 0 -3 6 -14 10 -23 10 -15 0 -15 -2 -2
-10z"/>
<path d="M2765 5910 c-3 -5 1 -10 9 -10 22 0 20 -13 -4 -28 -27 -16 -25 -27 4
-27 15 0 22 5 19 13 -3 8 0 10 10 6 21 -8 81 27 65 38 -7 4 -21 0 -31 -9 -16
-15 -19 -15 -33 5 -16 24 -29 28 -39 12z"/>
<path d="M2718 5843 c7 -3 16 -2 19 1 4 3 -2 6 -13 5 -11 0 -14 -3 -6 -6z"/>
<path d="M2560 5635 c0 -8 7 -15 16 -15 14 0 14 3 4 15 -7 8 -14 15 -16 15 -2
0 -4 -7 -4 -15z"/>
<path d="M2331 5256 c-12 -14 4 -76 20 -76 4 0 26 -19 49 -42 22 -23 40 -40
40 -38 0 3 -7 29 -15 59 -9 36 -25 64 -45 83 -36 33 -34 32 -49 14z"/>
<path d="M3161 5172 c3 -33 20 -86 39 -126 32 -66 35 -69 104 -102 73 -35 95
-40 112 -25 5 5 35 11 67 14 32 3 61 8 64 11 3 3 7 20 8 39 2 31 0 33 -26 29
-15 -2 -35 1 -46 7 -17 10 -17 10 3 11 11 0 29 6 39 14 11 8 25 12 32 9 6 -3
25 2 40 10 15 9 37 18 47 22 17 5 14 10 -23 44 -40 36 -47 39 -108 40 -36 1
-69 4 -74 6 -4 3 -11 0 -14 -5 -4 -7 -19 -9 -35 -5 -15 3 -30 3 -33 -2 -3 -4
-40 -8 -84 -8 l-78 0 -17 33 c-23 48 -24 47 -17 -16z"/>
<path d="M3590 5179 c0 -5 5 -7 10 -4 6 3 10 8 10 11 0 2 -4 4 -10 4 -5 0 -10
-5 -10 -11z"/>
<path d="M3857 5157 c-10 -16 -12 -28 -5 -40 16 -29 27 -19 25 23 -1 22 -2 40
-3 40 -1 0 -9 -10 -17 -23z"/>
<path d="M2340 5152 c0 -30 23 -102 32 -102 12 0 -3 94 -18 110 -12 12 -14 11
-14 -8z"/>
<path d="M2394 5095 c-16 -40 37 -245 62 -245 14 0 -13 194 -33 233 -15 31
-21 33 -29 12z"/>
<path d="M3416 4625 c16 -24 44 -45 60 -45 3 0 -11 16 -32 35 -45 42 -50 43
-28 10z"/>
<path d="M4241 390 c-45 -7 -55 -31 -10 -25 29 4 59 20 48 28 -2 2 -19 0 -38
-3z"/>
</g>
</svg>
